<?xml version="1.0" encoding="UTF-8" standalone="no"?>

<svg width="100" height="100" preserveAspectRatio="xMidYMid meet" viewBox="0 0 100 100" version="1.1" xmlns="http://www.w3.org/2000/svg" xmlns:xlink="http://www.w3.org/1999/xlink" xml:space="preserve" xmlns:serif="http://www.serif.com/" style="fill-rule:evenodd;clip-rule:evenodd;stroke-linejoin:round;stroke-miterlimit:2;">
    <g transform="matrix(1,0,0,1,-303.695988,-337.700821)">
        <g transform="matrix(0.440619,0,0,0.440619,185.367162,333.997202)">
            <g id="_02">
                <path d="M280.255,71.418C280.729,72.064 280.923,71.861 281.392,72.5C281.736,72.968 281.393,73.017 281.434,73.024C281.799,73.087 282.131,72.767 282.493,72.691C285.393,72.079 285.432,72.736 355.5,72.636C365.02,72.622 452.685,72.497 474.5,72.552C482.039,72.571 481.997,73.033 482.65,73.012C482.782,73.007 482.768,72.982 484.25,72.609C487.997,81.336 488.714,83.397 489.221,85.562C489.77,87.905 491.064,90.413 491.661,93.472C492.828,99.442 493.629,99.31 493.843,105.397C493.447,105.431 493.054,105.232 492.658,105.266C492.257,105.301 491.895,105.547 491.496,105.6C488.082,106.052 373.817,105.512 342.501,105.695C340.647,105.706 276.553,105.718 275.495,105.705C275.255,105.702 273.134,105.678 272.5,105.65C271.456,105.605 271.418,105.393 270.5,105.862C270.185,106.023 269.997,106.376 269.682,106.537C269.874,104.08 271.909,92.049 274.655,85.572C275.894,82.651 275.789,81.74 276.71,79.603C278.479,75.496 278.199,75.388 280.255,71.418Z" style="fill:rgb(96,186,97);fill-opacity:1;"></path>
                <path d="M493.843,105.397C493.896,105.828 494.002,105.891 494.108,107.533C494.834,118.838 495.791,120.216 493.9,136.61C493.427,136.64 492.973,136.829 492.5,136.859C492.171,136.88 491.845,136.777 491.516,136.76C482.567,136.293 482.559,136.995 473.617,136.339C472.979,136.189 473.103,135.919 472.464,135.769C472.399,135.754 472.206,135.708 471.631,135.872C471.491,135.912 471.405,136.071 471.265,136.11C470.976,136.145 470.725,136.353 470.435,136.388C469.464,136.504 469.474,136.345 468.496,136.395C456.086,137.025 342.996,136.744 335.499,136.716C298.53,136.574 298.536,136.922 293.5,136.5C293.344,136.347 293.305,136.099 293.148,135.946C293.012,135.812 292.003,134.826 290.765,135.853C290.597,135.992 290.532,136.231 290.364,136.371C290.107,136.41 289.962,136.749 289.705,136.789C289.135,136.876 289.149,136.534 282.5,136.504C280.178,136.493 272.446,136.218 271.418,136.69C270.465,137.128 270.101,137.556 270.013,137.66C269.743,137.978 270.222,138.098 269.955,138.413C269.582,134.016 269.06,130.739 268.556,122.498C268.508,121.711 268.801,112.928 269.682,106.537C269.997,106.376 270.185,106.023 270.5,105.862C271.418,105.393 271.456,105.605 272.5,105.65C273.134,105.678 275.255,105.702 275.495,105.705C276.553,105.718 340.647,105.706 342.501,105.695C373.817,105.512 488.082,106.052 491.496,105.6C491.895,105.547 492.257,105.301 492.658,105.266C493.054,105.232 493.447,105.431 493.843,105.397Z" style="fill:rgb(254,236,0);fill-opacity:1;"></path>
                <path d="M303.189,40.135C303.702,40.489 303.988,41.112 304.5,41.466C305.773,42.345 315.08,41.482 410.499,41.806C414.262,41.819 455.516,41.959 457.54,41.811C457.697,41.799 459.482,41.669 459.5,41.657C459.975,41.353 460.124,40.675 460.6,40.371C462.145,41.776 462.24,41.639 463.772,43.227C464.123,43.59 467.55,47.144 468.071,47.843C471.605,52.586 471.791,52.417 472.087,52.836C473.76,55.193 473.653,55.241 475.394,57.577C476.796,59.459 479.1,63.509 479.214,63.681C482.117,68.086 482.013,68.128 484.25,72.609C482.768,72.982 482.782,73.007 482.65,73.012C481.997,73.033 482.039,72.571 474.5,72.552C452.685,72.497 365.02,72.622 355.5,72.636C285.432,72.736 285.393,72.079 282.493,72.691C282.131,72.767 281.799,73.087 281.434,73.024C281.393,73.017 281.736,72.968 281.392,72.5C280.923,71.861 280.729,72.064 280.255,71.418C281.472,68.626 282.84,66.615 283.107,66.223C286.347,61.463 285.274,60.72 295.392,48.413C300.082,42.707 300.483,43.089 303.189,40.135Z" style="fill:rgb(254,237,0);fill-opacity:1;"></path>
                <path d="M293.5,136.5C298.536,136.922 298.53,136.574 335.499,136.716C342.996,136.744 456.086,137.025 468.496,136.395C469.474,136.345 469.464,136.504 470.435,136.388C470.725,136.353 470.976,136.145 471.265,136.11C471.04,137.346 471.077,137.338 470.948,138.588C470.557,142.377 466.698,150.063 464.745,152.688C461.742,156.724 461.525,156.511 457.813,159.872C451.684,165.423 451.299,164.901 444.764,169.781C443.989,169.507 444.222,169.143 443.448,168.87C443.379,168.846 443.248,168.8 442.535,168.994C440.166,169.641 440.21,170.103 432.503,170.075C424.99,170.047 425.005,170.095 417.505,170.045C333.768,169.489 333.774,169.938 326.493,169.838C323.772,169.8 320.991,168.682 320.545,168.854C320.033,169.051 319.723,169.619 319.211,169.816C311.053,163.923 309.24,162.816 306.148,159.911C303.285,157.221 299.467,154.706 296.857,149.316C291.613,138.481 293.296,137.434 293.5,136.5Z" style="fill:rgb(98,187,95);"></path>
                <path d="M303.189,40.135C306.529,36.484 306.778,36.774 310.6,33.632C312.444,32.116 314.219,30.996 314.63,30.687C315.683,29.895 318.368,27.816 319.771,26.982C326.848,22.776 326.8,22.703 327.443,22.39C331.798,20.265 333.172,19.129 334.527,18.567C340.028,16.282 340.997,15.988 341.577,15.813C345.087,14.751 344.923,14.287 348.48,13.409C352.983,12.298 352.875,11.886 357.453,11.157C360.365,10.693 364.614,8.735 377.499,8.458C397.316,8.031 400.817,10.321 407.527,11.317C410.109,11.7 412.694,12.845 414.556,13.198C414.953,13.273 417.352,13.728 419.35,14.779C421.06,15.678 421.148,15.417 423.585,16.216C426.934,17.313 436.76,22.61 437.708,23.161C445.321,27.582 445.938,28.038 447.591,29.389C449.636,31.06 451.244,32.085 451.601,32.362C456.974,36.524 459.939,39.669 460.6,40.371C460.124,40.675 459.975,41.353 459.5,41.657C459.482,41.669 457.697,41.799 457.54,41.811C455.516,41.959 414.262,41.819 410.499,41.806C315.08,41.482 305.773,42.345 304.5,41.466C303.988,41.112 303.702,40.489 303.189,40.135Z" style="fill:rgb(99,189,97);fill-opacity:0.98;"></path>
                <path d="M290.364,136.371C290.532,136.231 290.597,135.992 290.765,135.853C292.003,134.826 293.012,135.812 293.148,135.946C293.305,136.099 293.344,136.347 293.5,136.5C293.296,137.434 291.613,138.481 296.857,149.316C299.467,154.706 303.285,157.221 306.148,159.911C309.24,162.816 311.053,163.923 319.211,169.816C319.645,170.146 319.363,170.626 328.676,175.141C332.053,176.778 333.172,177.127 333.58,177.253C336.864,178.275 336.602,178.955 341.53,180.404C343.038,180.847 345.211,181.742 347.554,182.286C348.323,182.465 357.636,185.018 360.515,185.439C363.036,185.808 363.004,185.952 365.537,186.181C371.034,186.68 370.989,186.925 376.514,187.252C380.508,187.49 380.494,187.745 384.496,187.335C385.814,187.201 393.595,186.948 399.548,185.818C399.7,185.846 401.449,186.168 401.449,186.168C402.777,186.165 403.405,185.277 403.44,185.261C415.712,182.659 420.947,180.783 422.426,180.253C426.014,178.967 425.994,178.97 429.51,177.53C431.125,176.869 431.171,177.064 431.309,177.005C431.433,176.952 431.47,176.778 431.588,176.714C432.155,176.402 432.805,176.468 435.675,174.869C436.475,174.424 436.539,174.588 437.333,174.125C437.628,173.953 437.525,173.804 438.449,173.411C438.712,173.298 439.005,173.255 439.257,173.12C439.877,172.789 439.808,172.691 440.464,172.441C443.135,171.424 443.562,170.729 444.764,169.781C451.299,164.901 451.684,165.423 457.813,159.872C461.525,156.511 461.742,156.724 464.745,152.688C466.698,150.063 470.557,142.377 470.948,138.588C471.077,137.338 471.04,137.346 471.265,136.11C471.405,136.071 471.491,135.912 471.631,135.872C472.206,135.708 472.399,135.754 472.464,135.769C473.103,135.919 472.979,136.189 473.617,136.339C473.584,136.699 473.715,137.062 473.682,137.423C472.957,145.511 466.986,153.641 465.989,157.719C465.004,161.749 465.07,161.807 461.673,167.599C461.101,168.573 461.137,168.578 460.561,169.56C459.38,170.974 456.253,175.463 454.446,177.451C453.968,177.978 454.002,177.989 453.522,178.519C453.048,179.045 453.02,179.003 452.6,179.587C450.641,182.316 440.613,190.882 439.559,191.579C439.133,191.86 439.183,191.928 434.32,195.227C433.933,195.489 431.936,196.844 429.295,198.204C427.639,199.056 427.653,199.058 426.165,200.195C425.86,200.358 423.685,201.518 422.394,202.313C422.293,202.375 412.888,206.876 407.665,207.921C405.313,208.391 398.657,210.901 385.494,211.401C382.489,211.516 382.501,211.306 379.501,211.447C373.537,211.728 366.393,210.642 355.424,207.734C353.038,207.101 342.646,203.336 339.61,201.345C338.699,200.747 338.721,200.733 337.755,200.209C333.949,197.681 332.297,197.216 330.716,196.152C329.994,195.666 327.589,193.952 327.318,193.759C323.4,190.967 323.473,190.887 316.317,184.681C313.059,181.856 310.873,179.488 306.908,174.205C305.929,172.902 306.015,172.858 304.743,171.287C303.423,169.656 303.293,169.804 302.647,169.281C302.315,168.227 302.42,168.198 301.811,167.288C301.331,166.569 301.494,166.496 301.044,165.767C300.669,165.16 300.593,165.234 300.24,164.62C298.413,161.433 298.552,161.369 298.121,159.752C297.587,157.749 297.704,156.389 295.119,151.687C290.583,143.436 290.584,139.808 290.21,138.516C290.129,138.237 289.853,138.017 289.838,137.727C289.83,137.568 290.092,137.512 290.15,137.363C290.335,136.886 290.174,136.861 290.364,136.371Z" style="fill:rgb(41,44,37);"></path>
                <path d="M337.755,200.209C338.721,200.733 338.699,200.747 339.61,201.345C342.646,203.336 353.038,207.101 355.424,207.734C366.393,210.642 373.537,211.728 379.501,211.447C382.501,211.306 382.489,211.516 385.494,211.401C398.657,210.901 405.313,208.391 407.665,207.921C412.888,206.876 422.293,202.375 422.394,202.313C423.685,201.518 425.86,200.358 426.165,200.195C426.998,200.54 426.713,200.932 427.545,201.278C427.618,201.308 427.621,201.288 428.521,201.173C430.353,200.938 430.33,200.871 430.489,200.852C432.981,200.555 459.003,200.592 460.5,201.048C460.882,201.164 461.186,201.474 461.568,201.59C459.67,203.577 459.694,203.572 459.134,204.11C455.774,207.341 455.394,207.174 453.697,208.701C451.589,210.598 451.544,210.509 449.28,212.191C445.22,215.206 433.854,221.922 432.482,222.45C425.518,225.127 419.079,228.525 415.449,229.196C412.042,229.825 410.92,230.747 407.486,231.416C400.809,232.716 399.92,232.642 398.578,232.893C388.626,234.755 370.197,233.72 367.531,233.323C364.515,232.874 364.542,232.785 361.512,232.397C359.967,232.199 360.019,232.008 358.462,231.832C354.589,231.393 353.502,230.379 350.459,229.682C341.847,227.712 340.756,226.178 331.505,222.487C330.203,221.968 321.855,217.085 321.346,216.709C317.152,213.614 316.166,213.629 311.434,209.575C307.368,206.09 305.888,206.05 302.414,201.6C302.899,201.367 303.014,200.637 303.5,200.404C303.806,200.257 304.16,200.58 304.499,200.601C304.833,200.622 305.166,200.544 305.501,200.53C310.98,200.306 310.97,200.747 328.5,200.533C332.752,200.481 336.032,201.489 336.446,201.298C336.962,201.06 337.24,200.447 337.755,200.209Z" style="fill:rgb(100,189,97);fill-opacity:0.98;"></path>
                <path d="M319.211,169.816C319.723,169.619 320.033,169.051 320.545,168.854C320.991,168.682 323.772,169.8 326.493,169.838C333.774,169.938 333.768,169.489 417.505,170.045C425.005,170.095 424.99,170.047 432.503,170.075C440.21,170.103 440.166,169.641 442.535,168.994C443.248,168.8 443.379,168.846 443.448,168.87C444.222,169.143 443.989,169.507 444.764,169.781C443.562,170.729 443.135,171.424 440.464,172.441C439.808,172.691 439.877,172.789 439.257,173.12C439.005,173.255 438.712,173.298 438.449,173.411C437.525,173.804 437.628,173.953 437.333,174.125C436.539,174.588 436.475,174.424 435.675,174.869C432.805,176.468 432.155,176.402 431.588,176.714C431.47,176.778 431.433,176.952 431.309,177.005C431.171,177.064 431.125,176.869 429.51,177.53C425.994,178.97 426.014,178.967 422.426,180.253C420.947,180.783 415.712,182.659 403.44,185.261C402.142,185.447 400.845,185.632 399.548,185.818C393.595,186.948 385.814,187.201 384.496,187.335C380.494,187.745 380.508,187.49 376.514,187.252C370.989,186.925 371.034,186.68 365.537,186.181C363.004,185.952 363.036,185.808 360.515,185.439C357.636,185.018 348.323,182.465 347.554,182.286C345.211,181.742 343.038,180.847 341.53,180.404C336.602,178.955 336.864,178.275 333.58,177.253C333.172,177.127 332.053,176.778 328.676,175.141C319.363,170.626 319.645,170.146 319.211,169.816Z" style="fill:rgb(253,235,0);"></path>
                <path d="M279.323,169.577C279.732,169.595 280.091,169.213 280.5,169.231C282.45,169.317 282.382,170.473 291.521,169.926C297.111,169.592 297.178,170.467 302.647,169.281C303.293,169.804 303.423,169.656 304.743,171.287C306.015,172.858 305.929,172.902 306.908,174.205C310.873,179.488 313.059,181.856 316.317,184.681C323.473,190.887 323.4,190.967 327.318,193.759C327.589,193.952 329.994,195.666 330.716,196.152C332.297,197.216 333.949,197.681 337.755,200.209C337.24,200.447 336.962,201.06 336.446,201.298C336.032,201.489 332.752,200.481 328.5,200.533C310.97,200.747 310.98,200.306 305.501,200.53C305.166,200.544 304.833,200.622 304.499,200.601C304.16,200.58 303.806,200.257 303.5,200.404C303.014,200.637 302.899,201.367 302.414,201.6C301.658,200.819 301.644,200.851 300.845,200.125C300.762,200.049 300.78,200.059 299.822,199.154C296.894,196.389 296.817,195.946 295.569,194.444C294.689,193.385 287.842,185.145 285.427,180.541C284.031,177.878 283.7,178.081 279.323,169.577Z" style="fill:rgb(254,239,1);fill-opacity:0.98;"></path>
                <path d="M460.561,169.56C460.844,169.626 461.092,169.186 461.375,169.252C461.534,169.289 461.779,170.179 464.501,170.073C475.538,169.64 475.566,170.625 481.519,169.825C482.404,169.706 482.414,169.709 482.488,169.734C483.328,170.02 483.121,170.369 483.957,170.653C482.669,173.303 482.635,173.282 482.523,173.512C482.251,174.075 477.943,181.617 475.723,184.646C471.728,190.098 471.782,190.128 469.225,193.296C465.669,197.701 465.677,197.691 461.568,201.59C461.186,201.474 460.882,201.164 460.5,201.048C459.003,200.592 432.981,200.555 430.489,200.852C430.33,200.871 430.353,200.938 428.521,201.173C427.621,201.288 427.618,201.308 427.545,201.278C426.713,200.932 426.998,200.54 426.165,200.195C427.653,199.058 427.639,199.056 429.295,198.204C431.936,196.844 433.933,195.489 434.32,195.227C439.183,191.928 439.133,191.86 439.559,191.579C440.613,190.882 450.641,182.316 452.6,179.587C453.02,179.003 453.048,179.045 453.522,178.519C454.002,177.989 453.968,177.978 454.446,177.451C456.253,175.463 459.38,170.974 460.561,169.56Z" style="fill:rgb(254,237,1);fill-opacity:0.98;"></path>
                <path d="M473.617,136.339C482.559,136.995 482.567,136.293 491.516,136.76C491.845,136.777 492.171,136.88 492.5,136.859C492.973,136.829 493.427,136.64 493.9,136.61C493.547,143.188 492.89,143.073 491.648,149.526C490.999,152.903 490.48,152.982 489.437,156.483C487.68,162.376 487.104,163.498 483.957,170.653C483.121,170.369 483.328,170.02 482.488,169.734C482.414,169.709 482.404,169.706 481.519,169.825C475.566,170.625 475.538,169.64 464.501,170.073C461.779,170.179 461.534,169.289 461.375,169.252C461.092,169.186 460.844,169.626 460.561,169.56C461.137,168.578 461.101,168.573 461.673,167.599C465.07,161.807 465.004,161.749 465.989,157.719C466.986,153.641 472.957,145.511 473.682,137.423C473.715,137.062 473.584,136.699 473.617,136.339Z" style="fill:rgb(100,188,95);fill-opacity:0.98;"></path>
                <path d="M290.364,136.371C290.174,136.861 290.335,136.886 290.15,137.363C290.092,137.512 289.83,137.568 289.838,137.727C289.853,138.017 290.129,138.237 290.21,138.516C290.584,139.808 290.583,143.436 295.119,151.687C297.704,156.389 297.587,157.749 298.121,159.752C298.552,161.369 298.413,161.433 300.24,164.62C300.593,165.234 300.669,165.16 301.044,165.767C301.494,166.496 301.331,166.569 301.811,167.288C302.42,168.198 302.315,168.227 302.647,169.281C297.178,170.467 297.111,169.592 291.521,169.926C282.382,170.473 282.45,169.317 280.5,169.231C280.091,169.213 279.732,169.595 279.323,169.577C276.783,163.61 275.831,160.305 275.592,159.477C274.713,156.425 274.291,156.592 273.447,153.514C272.606,150.447 272.081,149.254 271.846,148.425C271.564,147.429 271.747,146.386 269.955,138.413C270.222,138.098 269.743,137.978 270.013,137.66C270.101,137.556 270.465,137.128 271.418,136.69C272.446,136.218 280.178,136.493 282.5,136.504C289.149,136.534 289.135,136.876 289.705,136.789C289.962,136.749 290.107,136.41 290.364,136.371Z" style="fill:rgb(98,189,93);fill-opacity:0.98;"></path>
                <path d="M359.792,205.22C360.601,196.985 359.547,189.321 360.501,188.501C361.494,187.647 369.446,189.438 374.477,189.773C378.113,190.016 380.252,189.877 380.539,191.484C380.583,191.733 380.645,203.458 380.651,204.499C380.668,207.868 380.73,208.634 378.537,208.812C375.226,209.082 361.619,207.269 360.223,205.789C360.06,205.616 359.956,205.393 359.792,205.22Z" style="fill:rgb(254,254,254);"></path>
                <path d="M403.301,188.686C403.306,190.048 403.346,200.907 403.704,205.704C403.66,205.73 403.993,207.03 389.507,208.576C384.287,209.133 383.484,208.773 383.293,207.586C383.282,207.52 383.166,192.052 383.29,191.416C383.721,189.203 385.276,190.739 397.55,188.755C401.246,188.157 401.188,187.922 401.51,187.878C402.827,187.699 403.264,188.655 403.301,188.686Z" style="fill:rgb(254,254,254);"></path>
                <path d="M338.437,182.257C342.555,183.126 351.867,186.49 353.472,186.716C354.12,186.807 354.78,186.806 355.422,186.932C358.103,187.458 357.545,189.319 357.537,189.492C357.192,196.88 357.513,196.864 357.392,205.183C355.409,205.107 355.367,205.205 352.338,203.868C348.619,202.226 348.421,202.72 342.38,199.751C340.348,198.753 340.369,198.752 338.523,197.478C338.528,197.193 338.012,197.075 338.016,196.791C338.024,196.32 338.411,195.934 338.557,195.486C338.894,194.452 338.726,191.658 338.722,191.502C338.51,183.952 338.323,183.973 338.305,183.317C338.295,182.961 338.446,182.613 338.437,182.257Z" style="fill:rgb(253,253,253);"></path>
                <path d="M406.413,188.438C406.572,188.28 406.453,187.593 408.612,186.99C409.538,186.73 409.587,186.961 413.603,185.802C421.327,183.574 421.556,183.416 422.149,183.008C422.309,182.898 422.44,182.749 422.6,182.639C422.783,182.513 424.862,181.077 425.377,182.645C425.448,182.862 425.168,182.853 425.139,185.49C425.025,195.872 425.385,195.852 425.497,196.499C425.466,196.577 425.638,197.212 424.932,197.896C423.308,199.467 414.734,202.566 411.304,204.088C408.361,205.394 407.8,205.26 406.519,205.414L406.165,204.966C406.215,204.762 406.881,204.154 406.774,202.478C406.769,202.399 406.747,202.06 406.73,201.495C406.35,189.478 406.449,189.482 406.413,188.438Z" style="fill:rgb(253,253,253);"></path>
                <path d="M428.447,196.021C428.308,195.688 427.665,195.783 427.526,195.45C427.388,195.12 427.733,194.761 427.773,194.406C427.817,194.013 427.796,194.013 427.689,182.607C427.663,179.904 432.334,179.564 436.779,176.996C438.313,176.11 441.502,173.99 442.296,174.98C442.372,175.075 442.208,175.09 442.191,176.569C442.13,181.875 442.411,181.848 442.709,183.511C443.12,185.809 441.326,186.749 439.86,187.947C433.998,192.742 432.567,193.237 430.641,194.704C429.045,195.919 428.921,195.737 428.447,196.021Z" style="fill:rgb(253,253,253);"></path>
                <path d="M336.209,181.816C336.137,182.103 336.304,182.417 336.231,182.705C336.16,182.988 335.869,183.181 335.795,183.463C335.711,183.781 335.792,191.473 335.882,193.542C335.934,194.706 336.104,194.722 335.958,194.935C335.452,195.668 334.946,194.9 334.445,195.628C333.454,194.945 325.812,189.684 322.407,186.603C320.229,184.632 321.216,184.162 321.319,179.495C321.327,179.133 321.415,175.201 321.583,174.972C322.003,174.402 327.228,177.385 330.451,178.62C335.188,180.437 335.689,181.301 336.209,181.816Z" style="fill:rgb(254,254,254);"></path>
                <path d="M314.416,169.619C319.246,172.997 319.302,173.291 319.165,174.578C319.071,175.471 318.835,175.627 318.839,178.504C318.839,178.849 318.845,182.649 318.58,182.803C317.856,183.227 316.617,181.659 316.495,181.505C316.107,181.014 315.935,181.194 311.354,175.614C307.736,171.207 307.314,170.194 307.089,169.652C306.28,167.71 306.291,167.702 306.228,167.634C306.116,167.513 306.025,167.666 304.51,166.483C303.63,165.796 300.523,160.903 300.423,160.508C299.398,156.445 303.626,160.982 303.815,161.184C307.21,164.828 307.394,164.621 309.3,165.864C309.726,166.142 309.657,166.233 314.416,169.619Z" style="fill:rgb(249,248,247);"></path>
                <path d="M455.415,165.195C455.925,165.989 456.435,166.783 456.945,167.577C456.676,169.777 457.14,170.041 454.385,173.405C449.005,179.975 448.94,179.908 448.497,180.498C448.332,180.718 446.539,183.108 445.56,182.295C445.297,182.076 445.363,176.8 445.217,175.502C444.934,173 445.11,172.812 447.279,171.193C447.927,170.709 452.504,167.293 455.415,165.195Z" style="fill:rgb(254,253,249);"></path>
                <path d="M403.301,188.686C403.719,188.528 404.02,188.133 404.439,187.974C404.568,187.925 404.154,188.676 405.898,188.906C406.129,188.937 406.183,188.407 406.413,188.438C406.449,189.482 406.35,189.478 406.73,201.495C406.747,202.06 406.769,202.399 406.774,202.478C406.881,204.154 406.215,204.762 406.165,204.966L405.499,205.69C404.901,205.695 404.302,205.699 403.704,205.704C403.346,200.907 403.306,190.048 403.301,188.686Z" style="fill:rgb(131,128,126);"></path>
                <path d="M342.612,124.121C342.224,123.943 341.806,123.837 341.418,123.659C339.256,122.664 338.125,120.017 339.623,118.632C342.729,115.76 350.893,121.279 346.779,123.96C345.297,124.927 342.984,124.189 342.612,124.121Z" style="fill:rgb(12,11,9);"></path>
                <path d="M417.649,119.717C420.533,117.719 421.303,117.791 421.527,117.773C425.396,117.455 426.715,122.151 421.35,124.02C418.225,125.108 412.542,123.658 417.649,119.717Z" style="fill:rgb(14,11,12);"></path>
                <path d="M336.209,181.816C336.952,181.963 337.694,182.11 338.437,182.257C338.446,182.613 338.295,182.961 338.305,183.317C338.323,183.973 338.51,183.952 338.722,191.502C338.726,191.658 338.894,194.452 338.557,195.486C338.411,195.934 338.024,196.32 338.016,196.791C338.012,197.075 338.528,197.193 338.523,197.478C336.563,196.367 336.488,196.569 334.445,195.628C334.946,194.9 335.452,195.668 335.958,194.935C336.104,194.722 335.934,194.706 335.882,193.542C335.792,191.473 335.711,183.781 335.795,183.463C335.869,183.181 336.16,182.988 336.231,182.705C336.304,182.417 336.137,182.103 336.209,181.816Z" style="fill:rgb(151,150,151);"></path>
                <path d="M455.415,165.195C456.007,164.897 455.914,164.785 456.496,164.492C456.819,164.329 456.869,164.511 457.173,164.309C457.236,164.268 463.463,156.423 463.311,159.587C463.243,161.007 462.047,162.324 461.394,163.428C461.25,163.672 460.124,165.575 459.394,166.35C458.423,167.381 458.344,167.306 456.945,167.577C456.435,166.783 455.925,165.989 455.415,165.195Z" style="fill:rgb(217,214,213);"></path>
                <path d="M399.548,185.818C400.845,185.632 402.142,185.447 403.44,185.261C403.405,185.277 402.777,186.165 401.449,186.168C401.449,186.168 399.7,185.846 399.548,185.818Z" style="fill:rgb(154,133,16);"></path>
                <path d="M406.165,204.966L406.519,205.414L405.499,205.69L406.165,204.966Z" style="fill:rgb(115,115,114);"></path>
            </g>
        </g>
    </g>
</svg>