<?xml version="1.0" encoding="UTF-8" standalone="no"?>

<svg width="100" height="100" preserveAspectRatio="xMidYMid meet" viewBox="0 0 100 100" version="1.1" xmlns="http://www.w3.org/2000/svg" xmlns:xlink="http://www.w3.org/1999/xlink" xml:space="preserve" xmlns:serif="http://www.serif.com/" style="fill-rule:evenodd;clip-rule:evenodd;stroke-linejoin:round;stroke-miterlimit:2;">
    <g transform="matrix(1,0,0,1,-191.99475,-465.073073)">
        <g transform="matrix(0.440619,0,0,0.440619,185.367162,333.997202)">
            <g id="_05">
                <path d="M98.427,519.823C87.729,516.938 86.306,515.903 84.592,515.231C76.692,512.136 67.168,506.122 65.784,505.115C62.422,502.668 62.255,502.928 59.391,500.646C58.284,499.764 58.31,499.754 57.209,498.866C39.215,484.363 32.165,470.46 29.182,465.692C25.664,460.07 21.98,450.535 21.693,449.448C20.857,446.289 20.67,446.359 19.981,444.325C16.001,432.561 15.386,421.528 15.273,419.511C13.879,394.508 19.184,379.702 20.354,376.435C22.606,370.152 22.442,370.108 22.67,369.576C22.842,369.175 23.026,368.779 23.195,368.376C25.02,364.003 24.956,363.99 26.922,359.681C27.292,358.87 32.338,350.422 32.811,349.68C35.062,346.148 35.391,346.386 36.531,344.523C39.307,339.987 42.757,336.523 45.979,332.947C46.068,332.848 56.314,323.055 57.863,321.963C63.891,317.715 63.851,317.664 64.381,317.304C70.889,312.877 74.65,311.163 75.596,310.732C80.107,308.676 79.777,307.996 84.464,306.38C89.217,304.741 93.343,302.62 98.522,301.611C102.791,300.779 103.953,300.038 109.479,299.346C114.061,298.772 123.956,296.218 139.533,298.26C140.407,298.375 146.06,299.116 150.431,299.904C153.206,300.405 153.847,300.854 155.56,301.197C159.631,302.012 159.623,302.002 163.552,303.354C169.221,305.305 169.13,305.53 171.559,306.321C174.476,307.271 185.249,312.724 188.221,314.879C190.828,316.771 190.928,316.583 193.567,318.411C194.511,319.065 195.477,319.935 195.762,320.149C204.111,326.42 209.634,331.301 218.377,342.593C222.347,347.721 223.137,349.448 223.726,350.37C224,350.798 226.12,354.116 227.082,355.767C227.324,356.182 232.086,365.31 233.013,367.689C236.373,376.314 236.93,378.586 237.169,379.563C239.018,387.106 239.267,388.709 239.393,389.515C241.743,404.618 241.584,411.575 241.54,413.501C241.408,419.292 239.381,432.838 239.248,433.451C237.324,442.316 236.824,443.649 236.505,444.502C234.176,450.718 234.287,450.756 234.064,451.289C232.152,455.869 232.193,455.88 232.011,456.271C228.15,464.55 226.186,467.625 225.589,468.56C222.158,473.933 222.461,474.124 219.138,478.218C216.247,481.78 216.353,481.855 216.098,482.162C213.159,485.7 213.206,485.722 210.037,489.054C205.235,494.101 196.274,501.561 192.621,503.728C190.128,505.207 190.231,505.338 187.81,506.942C186.073,508.092 186.029,507.986 184.235,509.048C182.464,510.096 180.67,511.036 180.356,511.2C176.711,513.11 167.235,517.055 166.437,517.281C162.17,518.494 152.31,521.547 146.478,522.338C139.116,523.337 139.139,523.409 138.498,523.478C123.814,525.06 113.189,522.761 112.475,522.671C105.348,521.777 105.376,521.666 98.427,519.823Z" style="fill:rgb(248,112,118);fill-opacity:0.99;"></path>
                <path d="M208.776,454.651C208.691,454.96 208.09,457.162 207.246,458.352C206.039,460.054 206.069,460.051 204.84,461.749C204.681,461.969 204.61,462.246 204.436,462.454C204.304,462.612 204.065,462.658 203.942,462.823C203.261,463.74 203.684,464.201 199.858,467.804C198.152,469.41 196.501,471.819 190.782,476.849C188.837,478.559 188.852,478.579 188.639,478.69C188.389,478.822 188.064,478.802 187.841,478.975C187.671,479.107 187.697,479.401 187.536,479.544C187.369,479.692 187.254,479.518 185.252,481.137C184.016,482.137 183.89,481.898 183.784,481.983C183.631,482.108 183.653,482.376 183.504,482.506C183.295,482.688 182.986,482.716 182.76,482.875C182.601,482.987 182.523,483.189 182.367,483.305C182.279,483.371 181.464,483.983 181.212,484.051C181.076,484.088 180.924,483.867 180.804,483.941C180.624,484.051 180.652,484.352 180.495,484.493C180.198,484.757 180.116,484.629 176.359,487.248C175.606,487.773 175.498,487.516 174.714,487.966C174.452,488.117 174.605,488.356 173.601,488.713C171.908,489.315 171.855,488.784 171.724,488.858C171.504,488.981 171.734,489.412 171.563,489.598C171.489,489.678 171.425,489.571 170.364,490.264C170.154,490.402 170.088,490.278 167.616,491.778C167.494,491.851 167.423,492.015 167.285,492.047C167.087,492.094 166.859,491.908 166.676,491.997C166.53,492.069 166.608,492.348 166.477,492.444C166.226,492.629 165.904,492.696 165.605,492.784C165.297,492.874 164.952,492.84 164.662,492.976C164.534,493.036 164.558,493.264 164.436,493.335C164.151,493.498 164.042,493.202 160.588,494.766C160.103,494.986 156.879,496.446 154.324,497.004C154.141,497.044 153.945,496.929 153.762,496.97C153.619,497.002 153.538,497.177 153.396,497.213C152.151,497.528 152.11,497.282 149.447,498.07C147.314,498.702 136.168,500.657 129.5,500.297C125.705,500.092 124.983,500.836 118.434,499.976C110.098,498.881 110.085,499.009 107.511,498.395C106.946,498.261 101.826,497.041 100.493,496.52C99.46,496.116 99.484,496.081 98.409,495.765C98.238,495.715 96.952,495.337 96.346,494.911C95.96,494.64 95.778,494.078 95.333,493.921C95.071,493.829 94.862,494.305 94.584,494.29C94.15,494.266 93.778,493.961 93.369,493.814C93.078,493.71 92.728,493.728 92.484,493.539C92.33,493.419 92.482,493.048 92.297,492.983C92.067,492.902 91.852,493.235 91.608,493.229C91.504,493.227 91.548,493.108 90.411,492.721C89.216,492.313 86.027,490.319 84.385,489.676C84.117,489.571 83.836,489.489 83.585,489.347C83.431,489.26 83.344,489.076 83.185,488.998C82.396,488.616 82.335,488.791 81.569,488.363C76.477,485.523 69.403,479.968 68.527,479.467C64.884,477.385 61.337,473.055 55.228,466.705C53.264,464.664 53.501,464.481 53.009,463.869C52.879,463.707 52.649,463.648 52.513,463.49C52.236,463.169 48.468,457.93 47.909,456.31C47.202,454.263 47.444,454.136 45.447,451.542C43.668,449.231 40.008,447.768 39.475,447.555C37.943,446.943 37.692,446.589 37.591,446.446C37.439,446.233 36.475,443.85 40.597,445.149C44.761,446.463 47.228,450.004 50.662,452.304C51.048,452.562 54.832,455.097 55.446,455.579C55.599,455.7 55.66,455.918 55.821,456.028C56.513,456.501 56.604,456.319 57.288,456.823C60.376,459.097 60.348,459.543 64.464,461.564C67.72,463.163 71.784,466.256 75.627,467.237C77.546,467.727 79.805,469.267 86.559,471.272C86.802,471.344 86.774,471.364 89.577,472.245C90.488,472.494 95.735,473.79 98.458,474.657C100.482,475.301 105.968,476.597 107.48,476.683C114.051,477.061 113.984,477.591 120.538,478.091C127.364,478.613 127.36,478.887 130.5,478.512C138.011,477.614 138.018,477.864 145.533,476.904C145.878,476.86 147.251,476.839 147.503,476.865C149.193,477.046 149.242,477.225 151.422,476.343C152.127,476.058 152.148,476.135 160.582,473.812C163.972,472.879 164.017,473.113 167.399,472.131C169.95,471.39 174.006,469.898 174.575,469.689C175.147,469.478 175.116,469.412 181.667,466.877C182.732,466.464 184.771,465.676 194.303,460.215C195.702,459.414 197.111,458.226 197.286,458.164C197.575,458.061 197.95,458.216 198.199,458.036C198.393,457.896 198.249,457.527 198.409,457.35C198.422,457.336 201.368,455.336 201.385,455.327C202.994,454.508 202.858,454.322 204.339,453.313C206.222,452.031 206.302,452.14 208.241,450.228C214.991,443.571 218.623,444.794 218.739,445.342C219.028,446.695 218.696,446.754 217.419,447.301C216.639,447.635 215.307,447.598 212.205,450.156C208.69,453.055 209.155,453.805 208.776,454.651Z" style="fill:rgb(68,48,53);fill-opacity:1;"></path>
                <path d="M114.548,480.166C125.573,481.411 126.587,480.595 126.667,482.423C126.689,482.936 126.332,486.072 126.665,495.516C126.717,497.01 127.059,497.504 125.589,497.797C124.877,497.939 124.679,497.979 116.525,497.239C108.155,496.48 108.317,495.753 108.287,495.681C107.878,494.707 108.299,494.655 108.221,482.482C108.219,482.25 108.204,479.921 108.575,479.605C109.188,479.082 110.583,479.614 114.548,480.166Z" style="fill:rgb(252,253,253);"></path>
                <path d="M147.466,479.559C147.49,479.833 147.745,480.053 147.769,480.328C147.784,480.501 147.642,480.476 147.579,482.496C147.302,491.277 147.897,494.219 148.099,495.218C147.959,495.367 147.894,495.577 147.754,495.727C146.936,496.597 146.567,496.335 132.537,497.827C129.233,498.178 129.908,496.209 129.896,495.443C129.88,494.417 129.731,485.023 129.773,482.62C129.802,480.94 131.509,481.1 132.458,481.01C144.916,479.822 144.88,479.555 145.495,479.462C146.974,479.238 147.102,479.541 147.466,479.559Z" style="fill:rgb(252,252,252);"></path>
                <path d="M165.5,475.485C166.849,477.048 167.114,476.944 167.125,477.747C167.128,477.972 166.954,478.178 166.967,478.402C167.11,480.972 167.739,480.754 168.055,481.515C168.147,481.736 168.055,481.731 168.155,484.511C168.221,486.347 168.671,486.192 169.663,487.731C165.691,489.89 165.924,490.463 161.492,491.437C159.87,491.794 159.431,492.769 157.467,493.418C153.404,494.759 153.307,494.371 152.53,494.414C152.413,493.95 151.859,493.679 151.741,493.215C151.689,493.006 152.059,492.882 152.088,492.668C152.143,492.271 152.004,491.87 151.981,491.469C151.88,489.702 152.078,484.22 151.591,479.577C152.449,478.826 152.37,478.666 153.482,478.42C159.523,477.08 159.415,476.724 165.5,475.485Z" style="fill:rgb(250,250,250);"></path>
                <path d="M89.49,475.476C89.961,475.484 89.993,475.104 92.446,475.738C97.677,477.091 97.599,477.296 99.405,477.826C104.078,479.198 105.057,478.609 104.923,480.379C104.542,485.407 104.775,487.339 104.43,494.33C104.212,494.35 103.501,494.883 101.577,494.258C100.976,494.063 98.806,493.284 98.628,493.209C91.61,490.254 91.121,491.026 88.585,488.43C88.645,488.123 88.454,487.8 88.514,487.493C88.587,487.118 88.869,486.81 88.973,486.443C89.206,485.621 89.056,477.323 89.233,476.285C89.28,476.006 89.443,475.755 89.49,475.476Z" style="fill:rgb(253,253,253);"></path>
                <path d="M182.531,469.421C182.557,469.733 182.696,470.028 182.722,470.34C182.972,473.301 182.283,473.335 183.18,478.395C183.098,478.685 183.191,479.007 183.108,479.297C183.012,479.636 181.562,480.909 181.251,481.123C176.739,484.226 173.246,486.174 172.528,486.575C172.249,486.331 171.759,487.191 171.48,486.947C170.602,486.178 171.241,480.139 170.107,474.204C170.315,474.074 170.443,473.835 170.652,473.705C171.311,473.294 171.351,473.416 172.388,473.097C172.794,472.972 176.126,471.948 177.377,471.261C181.337,469.086 181.665,469.57 182.531,469.421Z" style="fill:rgb(251,251,250);"></path>
                <path d="M74.55,469.665C74.701,469.701 75.416,469.486 78.275,470.901C80.785,472.142 80.78,472.106 83.425,472.97C85.885,473.774 85.324,474.498 85.205,475.562C85.054,476.917 85.23,484.939 85.127,485.318C84.73,486.785 84.62,486.868 84.508,486.952C83.977,487.35 84.008,486.158 83.477,486.557C76.099,481.944 76.205,481.801 75.555,481.416C73.96,480.471 74.146,480.273 73.485,479.508C73.563,479.182 73.406,478.829 73.484,478.503C73.669,477.735 74.36,477.835 74.349,471.46C74.348,471.075 74.272,470.687 74.315,470.304C74.34,470.079 74.525,469.891 74.55,469.665Z" style="fill:rgb(252,252,251);"></path>
                <path d="M194.564,462.803C194.757,463.141 195.283,463.195 195.477,463.534C195.555,463.67 195.312,463.702 195.674,465.488C195.894,466.572 195.818,466.559 195.966,467.664C194.572,470.358 194.293,470.14 191.672,472.678C191.267,473.069 188.606,475.646 186.449,477.396C186.191,477.026 185.55,477.064 185.292,476.694C184.962,476.222 185.496,474.358 184.968,468.746C185.156,468.475 185.255,467.844 186.39,467.293C190.586,465.254 190.449,465.049 194.564,462.803Z" style="fill:rgb(253,250,245);"></path>
                <path d="M49.53,355.483C59.464,370.93 70.357,358.879 72.471,358.739C72.583,358.732 73.62,359.469 73.165,360.369C72.394,361.899 63.457,369.184 54.284,363.979C53.481,363.523 48.236,360.548 46.42,355.528C45.283,352.383 47.564,351.864 48.483,353.512C49.03,354.493 48.977,354.495 49.53,355.483Z" style="fill:rgb(47,19,19);fill-opacity:0.98;"></path>
                <path d="M60.928,464.71C61.434,463.273 61.349,463.219 61.47,463.17C61.745,463.061 64.421,464.326 65.257,464.855C67.386,466.203 67.457,466.043 69.629,467.317C71.17,468.221 70.418,468.691 70.535,474.501C70.565,475.969 70.529,475.953 70.497,477.432C69.558,476.987 69.497,477.138 68.508,476.488C67.61,475.897 67.72,475.783 67.466,475.534C66.958,475.037 66.966,475.05 66.457,474.54C64.537,472.613 62.004,470.725 59.975,467.278C60.114,466.907 60.01,466.892 60.146,466.53C60.202,466.381 60.204,466.395 60.928,464.71Z" style="fill:rgb(253,250,246);"></path>
                <path d="M44.861,365.087C40.204,361.306 39.07,361.868 39.097,360.446C39.162,357.034 53.179,364.205 52.461,375.497C52.131,380.681 48.455,386.784 46.687,386.049C46.564,385.998 45.994,385.761 46.196,384.459C46.262,384.033 47.676,381.93 47.818,381.718C50.643,377.516 49.818,372.835 49.389,371.535C48.065,367.525 45.65,365.818 44.861,365.087Z" style="fill:rgb(50,18,23);fill-opacity:0.98;"></path>
                <path d="M60.73,375.696C54.983,382.882 58.639,387.174 57.553,388.542C55.56,391.052 54.937,384.869 54.898,384.483C54.665,382.17 56.336,373.433 63.732,369.98C64.507,369.618 69.92,367.09 74.372,368.817C75.7,369.332 76.097,370.798 75.386,371.346C74.136,372.31 71.176,369.363 67.38,371.255C66.367,371.76 66.314,371.593 64.506,372.513C62.489,373.539 60.897,375.529 60.73,375.696Z" style="fill:rgb(58,27,29);"></path>
                <path d="M147.466,479.559C147.918,479.567 147.794,479.914 148.243,479.922C148.915,479.933 148.843,479.604 149.511,479.593C149.957,479.586 150.372,479.884 150.817,479.881C151.095,479.879 151.314,479.579 151.591,479.577C152.078,484.22 151.88,489.702 151.981,491.469C152.004,491.87 152.143,492.271 152.088,492.668C152.059,492.882 151.689,493.006 151.741,493.215C151.859,493.679 152.413,493.95 152.53,494.414C152.211,494.494 151.866,494.252 151.548,494.332C151.506,494.343 150.664,495.024 149.248,495.202C148.868,495.25 148.479,495.17 148.099,495.218C147.897,494.219 147.302,491.277 147.579,482.496C147.642,480.476 147.784,480.501 147.769,480.328C147.745,480.053 147.49,479.833 147.466,479.559Z" style="fill:rgb(145,140,144);"></path>
                <path d="M164.323,409.276C165.823,408.129 165.766,408.092 165.897,407.995C168.859,405.794 171.118,407.71 171.073,409.475C170.993,412.68 163.085,416.654 162.475,412.505C162.18,410.499 162.864,410.666 164.323,409.276Z" style="fill:rgb(19,12,13);"></path>
                <path d="M170.107,474.204C171.241,480.139 170.602,486.178 171.48,486.947C171.759,487.191 172.249,486.331 172.528,486.575C171.098,487.204 171.118,487.199 169.663,487.731C168.671,486.192 168.221,486.347 168.155,484.511C168.055,481.731 168.147,481.736 168.055,481.515C167.739,480.754 167.11,480.972 166.967,478.402C166.954,478.178 167.128,477.972 167.125,477.747C167.114,476.944 166.849,477.048 165.5,475.485C165.62,475.457 166.336,475.455 167.497,475.007C168.461,474.635 168.44,474.588 168.526,474.565C168.836,474.484 169.171,474.555 169.484,474.483C169.705,474.433 169.885,474.255 170.107,474.204Z" style="fill:rgb(160,160,162);"></path>
                <path d="M90.377,413.983C88.845,413.41 88.796,413.511 87.467,412.538C85.986,411.452 85.522,409.172 85.759,408.571C87.384,404.45 95.927,410.828 93.418,413.431C92.265,414.627 92.033,414.066 90.377,413.983Z" style="fill:rgb(15,13,13);"></path>
                <path d="M206.391,454.777C205.366,458.289 204.827,458.014 200.955,462.849C200.259,463.718 200.349,463.763 199.63,464.63C199.141,465.219 199.101,465.149 198.566,465.676C198.348,465.204 197.967,464.818 197.748,464.346C197.71,464.264 197.573,463.567 197.559,463.499C197.256,461.963 197.457,461.952 197.424,461.458C197.925,460.887 197.717,460.676 199.504,459.505C203.017,457.204 202.587,456.549 206.391,454.777Z" style="fill:rgb(248,244,227);"></path>
                <path d="M59.003,461.842C58.405,464.14 58.458,464.145 58.357,464.323C58.019,464.92 57.874,464.788 57.53,465.395C57.187,465.049 57.072,465.183 56.06,463.915C51.471,458.161 51.532,458.12 51.126,457.626C50.988,457.459 49.548,455.708 50.273,455.056C50.686,454.685 52.418,456.189 52.577,456.327C52.797,456.519 53.946,457.516 55.474,458.534C57.505,459.887 57.401,460.003 59.003,461.842Z" style="fill:rgb(244,236,223);"></path>
                <path d="M184.968,468.746C185.496,474.358 184.962,476.222 185.292,476.694C185.55,477.064 186.191,477.026 186.449,477.396C184.692,478.5 184.731,478.556 184.555,478.586C184.099,478.664 183.636,478.318 183.18,478.395C182.283,473.335 182.972,473.301 182.722,470.34C182.696,470.028 182.557,469.733 182.531,469.421C183.343,469.196 184.155,468.971 184.968,468.746Z" style="fill:rgb(107,106,115);"></path>
                <path d="M197.424,461.458C197.457,461.952 197.256,461.963 197.559,463.499C197.573,463.567 197.71,464.264 197.748,464.346C197.967,464.818 198.348,465.204 198.566,465.676C197.267,466.851 197.295,466.868 197.026,467.014C196.614,467.237 196.57,467.096 196.169,467.342C196.061,467.409 196.074,467.598 195.966,467.664C195.818,466.559 195.894,466.572 195.674,465.488C195.312,463.702 195.555,463.67 195.477,463.534C195.283,463.195 194.757,463.141 194.564,462.803C194.859,462.676 195.202,462.687 195.497,462.56C195.497,462.56 197.27,461.546 197.424,461.458Z" style="fill:rgb(119,123,123);"></path>
                <path d="M59.003,461.842C59.007,462.291 59.26,462.215 59.264,462.654C59.268,463.234 58.942,463.179 59.02,463.739C59.077,464.156 59.195,464.684 59.57,464.875C59.976,465.082 60.522,464.503 60.928,464.71C60.204,466.395 60.202,466.381 60.146,466.53C60.01,466.892 60.114,466.907 59.975,467.278C59.754,467.069 59.943,466.61 59.722,466.4C59.722,466.4 57.705,465.475 57.53,465.395C57.874,464.788 58.019,464.92 58.357,464.323C58.458,464.145 58.405,464.14 59.003,461.842Z" style="fill:rgb(152,149,148);"></path>
            </g>
        </g>
    </g>
</svg>