<?xml version="1.0" encoding="UTF-8" standalone="no"?>

<svg width="252" height="291" preserveAspectRatio="xMidYMid meet" viewBox="0 0 252 291" version="1.1" xmlns="http://www.w3.org/2000/svg" xmlns:xlink="http://www.w3.org/1999/xlink" xml:space="preserve" xmlns:serif="http://www.serif.com/" style="fill-rule:evenodd;clip-rule:evenodd;stroke-linejoin:round;stroke-miterlimit:2;">
    <g transform="matrix(1,0,0,1,-185.887154,-262.359552)">
        <g id="Complete-Koro" transform="matrix(1,0,0,1,110,206)">
            <path d="M196.842,305.978C190.059,318.226 181.403,328.35 168.643,335.764C165.584,337.542 156.116,343.172 149.299,335.682C144.213,330.094 146.167,321.454 151.817,317.994C155.539,315.714 155.607,315.824 158.893,312.936C169.43,303.675 175.393,288.101 174.738,287.375C173.539,286.047 172.523,288.249 172.438,288.433C169.515,294.765 159.211,305.528 150.549,309.596C150.128,309.794 139.773,315.791 125.479,313.647C124.262,313.465 113.02,311.847 102.648,301.353C95.697,294.32 94.163,290.096 97.344,284.407C99.374,280.775 105.215,278.088 110.364,280.774C124.343,288.067 132.899,293.304 148.741,272.677C149.343,271.892 153.208,266.586 153.244,266.45C153.284,266.305 152.919,265.029 151.504,265.521C150.415,265.9 150.683,266.478 144.559,268.663C136.627,271.493 107.558,278.114 87.543,255.462C85.429,253.069 77.215,243.584 75.973,228.476C75.545,223.274 76.719,218.54 79.469,216.463C79.864,216.165 82.327,213.85 86.527,214.161C93.167,214.652 94.969,220.695 95.231,221.571C95.84,223.614 97.45,234.724 110.352,240.831C111.668,241.454 117.732,244.323 128.532,241.622C143.089,237.981 155.582,221.112 157.642,218.607C160.146,215.562 157.075,215.27 152.716,212.182C137.631,201.498 131.711,192.054 127.192,184.681C123.509,178.672 121.416,172.748 121.032,171.662C118.676,164.992 115.078,155.501 115.761,137.512C115.9,133.839 116.312,107.462 138.522,83.52C162.437,57.738 195.348,54.227 212.54,57.282C214.704,57.666 241.213,60.25 262.772,83.249C264.935,85.556 277.033,98.463 282.518,117.495C284.278,123.599 284.684,127.253 285.549,132.493C285.718,133.519 286.152,136.148 286.024,145.488C286.009,146.614 285.97,149.444 284.165,159.434C282.702,167.528 276.858,184.366 265.348,197.366C251.002,213.568 241.75,215.199 241.303,217.446C241.028,218.827 243.984,225.658 246.804,229.268C253.843,238.278 268.951,247.291 283.409,241.282C285.292,240.499 287.054,239.636 288.699,238.717C301.08,231.806 306.903,221.781 308.738,219.707C312.327,215.652 315.743,212.628 321.451,214.631C322.476,214.991 326.322,216.987 326.987,221.429C328.077,228.709 321.307,242.827 311.437,253.441C306.728,258.504 295.141,269.615 277.509,272.564C273.795,273.186 265.051,273.288 260.489,272.59C259.681,272.466 254.131,271.616 250.591,270.059C245.445,267.796 249.261,272.396 249.403,272.567C251.93,275.614 255.986,281.573 267.818,291.103C279.544,300.547 287.449,289.837 292.316,288.026C301.597,284.571 309.841,294.059 304.129,303.271C294.026,319.566 276.449,323.519 263.4,319.842C253.638,317.091 239.337,306.624 231.036,295.87C228.583,292.693 227.135,291.764 223.489,284.51C222.842,283.223 221.331,283.406 221.628,285.499C221.71,286.073 221.973,286.006 223.468,292.507C226.442,305.442 230.904,312.935 242.67,324.323C243.354,324.986 247.084,327.759 247.503,333.5C247.855,338.34 245.036,343.831 239.62,345.825C234.725,347.627 231.065,348.163 219.448,337.557C200.773,320.507 198.928,306.351 198.028,305.979C197.985,305.961 198.173,306.298 197.539,306.298C197.134,306.297 197.243,305.979 196.842,305.978Z"></path>
            <path d="M189.449,187.9C195.514,188.735 197.621,188.604 198.197,189.661C198.624,190.446 198.449,191.982 198.496,204.5C198.502,205.98 198.768,207.985 197.804,208.855C197.368,209.249 196.86,209.707 190.459,208.743C183.844,207.747 183.58,207.131 183.346,206.584C182.736,205.162 183.238,199.137 182.986,190.504C182.979,190.267 182.918,188.172 183.591,187.607C184.118,187.165 185.361,187.341 185.515,187.362C187.491,187.642 187.465,187.662 189.449,187.9Z" style="fill:rgb(252,252,252);"></path>
            <path d="M212.547,187.847C216.214,187.345 216.188,187.32 216.508,187.305C216.679,187.297 217.736,187.248 218.25,188.558C218.3,188.686 218.285,191.264 218.283,191.5C218.212,203.908 218.679,206.37 217.377,207.322C216.859,207.7 211.06,209.014 205.494,209.294C204.228,209.358 203.25,209.313 202.89,207.46C202.872,207.371 202.86,190.724 202.901,190.545C203.2,189.243 203.255,189.11 204.553,188.786C205.189,188.628 205.859,188.671 206.51,188.6C208.773,188.351 212.064,187.911 212.547,187.847Z" style="fill:rgb(251,251,251);"></path>
            <path d="M169.404,182.749C177.011,185.839 178.649,184.896 178.698,188.496C178.716,189.78 178.906,203.648 178.631,204.552C178.249,205.809 176.735,205.317 176.569,205.263C175.467,204.904 164.414,200.458 163.571,198.463C162.97,197.042 163.272,196.972 163.214,184.498C163.213,184.253 163.201,181.688 163.393,181.437C163.491,181.309 164.135,180.472 165.347,180.948C165.677,181.077 165.624,181.185 169.404,182.749Z" style="fill:rgb(252,252,252);"></path>
            <path d="M222.917,193.5C222.918,191.255 222.886,188.201 223.022,187.423C223.32,185.727 224.041,185.601 225.379,185.148C235.854,181.604 235.631,181.028 236.564,180.803C237.343,180.616 238.131,181.527 238.161,181.615C238.348,182.16 238.23,182.17 238.213,184.5C238.12,197.081 238.467,197.17 237.756,198.655C236.983,200.27 228.286,204.002 227.429,204.313C224.495,205.376 222.874,206.604 222.891,203.483C222.918,198.488 222.917,198.507 222.917,193.5Z" style="fill:rgb(250,250,250);"></path>
            <path d="M158.73,186.5C158.735,189.524 158.73,189.505 158.779,192.52C158.856,197.201 155.429,193.096 154.086,191.986C153.208,191.259 148.453,187.323 144.291,181.644C142.699,179.472 143.482,175.869 143.274,170.495C143.268,170.326 143.201,168.59 143.253,168.39C143.756,166.484 145.486,168.184 145.621,168.317C147.847,170.504 152.361,173.623 152.397,173.649C154.925,175.495 156.697,176.265 157.744,177.247C158.948,178.376 158.732,179.119 158.73,186.5Z" style="fill:rgb(252,252,252);"></path>
            <path d="M258.04,172.501C257.988,175.502 258.115,175.488 258.04,178.488C258.003,179.998 258.537,181.279 250.855,188.855C250.416,189.288 249.622,190.071 245.172,194.074C245.058,194.176 244.056,195.077 243.497,195.016C243.356,195 242.628,194.92 242.604,193.482C242.583,192.166 242.69,181.54 242.7,180.501C242.743,176.271 244.632,177.272 251.711,171.782C253.699,170.24 253.689,170.261 255.585,168.613C256.627,167.707 256.842,167.248 257.831,168.202C258.356,168.709 258.156,168.799 258.124,169.522C258.056,171.022 258.059,171.007 258.04,172.501Z" style="fill:rgb(252,252,252);"></path>
            <path d="M233.827,146.524C233.814,146.581 233.824,149.281 231.2,151.021C228.256,152.974 222.819,151.29 222.3,146.522C221.77,141.645 228.254,137.975 232.19,141.842C234.101,143.72 233.79,146.025 233.827,146.524Z" style="fill:rgb(252,252,252);"></path>
            <path d="M173.504,151.812C173.012,151.744 170.688,152.045 168.695,149.364C165.605,145.209 169.908,138.43 175.461,140.591C181.039,142.762 179.994,150.826 174.537,151.729C174.197,151.786 173.845,151.756 173.504,151.812Z" style="fill:rgb(252,252,252);"></path>
            <path d="M266.672,165.576C263.951,172.136 264.093,172.398 263.49,172.475C261.848,172.684 262.376,171.285 262.555,164.501C262.638,161.391 263.509,161.677 267.346,156.349C268.57,154.65 269.908,154.351 269.915,156.447C269.917,156.99 266.946,164.851 266.672,165.576Z" style="fill:rgb(245,245,245);"></path>
            <path d="M139.224,171.42C138.724,171.687 138.223,171.955 137.723,172.223C136.885,170.227 136.814,170.284 135.993,168.278C135.612,167.346 131.689,157.76 131.579,156.499C131.564,156.325 131.344,153.785 133.51,155.486C133.866,155.765 133.726,155.884 137.022,159.922C139.601,163.08 138.585,163.507 139.033,168.492C139.195,170.306 139.151,170.295 139.224,171.42Z" style="fill:rgb(241,241,241);"></path>
            <path d="M139.224,171.42C139.095,171.663 139.209,171.992 139.08,172.236C138.788,172.785 138.564,172.783 138.5,172.782C137.977,172.778 138.248,172.228 137.723,172.223C138.223,171.955 138.724,171.687 139.224,171.42Z" style="fill:rgb(115,115,115);"></path>
        </g>
        <g id="Koro-Head">
        </g>
    </g>
</svg>