<?xml version="1.0" encoding="UTF-8" standalone="no"?>

<svg width="140" height="139" preserveAspectRatio="xMidYMid meet" viewBox="0 0 140 139" version="1.1" xmlns="http://www.w3.org/2000/svg" xmlns:xlink="http://www.w3.org/1999/xlink" xml:space="preserve" xmlns:serif="http://www.serif.com/" style="fill-rule:evenodd;clip-rule:evenodd;stroke-linejoin:round;stroke-miterlimit:2;">
    <g transform="matrix(1,0,0,1,-456.108597,-264.576693)">
        <g id="Complete-Koro">
        </g>
        <g id="Koro-Head" transform="matrix(0.395721,0,0,0.395721,455.274181,263.552834)">
            <path d="M187.519,3.031C198.746,3.318 198.679,3.949 211.449,5.798C212.829,5.998 214.383,6.223 228.395,9.903C229.834,10.281 244.984,15.609 247.356,16.807C251.969,19.137 259.745,22.392 263.376,24.708C270.37,29.171 271.325,28.793 279.758,35.15C284.389,38.64 284.488,38.478 289.103,41.986C289.96,42.638 298.761,50.636 299.595,51.394C303.92,55.324 303.689,55.538 311.767,64.256C313.935,66.596 314.847,68.003 322.687,78.366C323.504,79.445 331.667,92.556 332.571,94.463C335.912,101.508 338.798,106.252 341.688,114.428C343.253,118.853 345.324,123.526 346.765,129.428C349.075,138.897 349.614,138.767 350.966,148.433C351.738,153.955 352.647,155.893 352.929,164.475C353.208,172.993 353.772,172.972 353.31,181.49C352.865,189.694 353.473,189.735 352.248,197.459C351.551,201.85 350.913,206.741 350.808,207.549C350.597,209.167 350.131,212.743 346.143,227.403C345.805,228.648 345.547,229.595 340.742,242.59C340.168,244.144 340.205,244.161 333.741,257.616C333.277,258.583 332.93,259.305 327.036,269.219C323.934,274.438 320.796,278.507 320.202,279.278C315.435,285.46 315.727,285.673 310.467,291.47C302.856,299.856 302.913,299.907 294.515,307.516C288.402,313.055 288.205,312.792 277.709,320.785C276.844,321.444 276.545,321.671 266.209,328.021C260.467,331.549 246.97,337.841 244.57,338.685C234.194,342.333 234.403,342.969 222.599,345.888C216.169,347.478 216.278,347.958 200.453,350.218C197.181,350.686 197.216,350.868 190.48,351.155C180.487,351.58 180.496,352.071 170.502,351.458C162.831,350.989 162.803,351.473 156.518,350.387C155.961,350.291 155.943,350.449 149.524,349.35C149.138,349.284 144.567,348.865 140.429,347.772C129.841,344.977 129.697,345.482 119.415,341.733C110.745,338.571 110.717,338.673 102.393,334.725C94.926,331.182 94.893,331.275 87.797,327.002C80.109,322.373 79.35,321.797 78.663,321.276C71.263,315.659 69.517,315.162 59.73,306.243C53.499,300.566 53.475,300.592 52.99,300.043C45.893,292.025 45.307,292.525 39.014,283.87C38.179,282.722 35.313,279.422 32.149,274.725C31.099,273.165 23.923,261.545 23.43,260.537C17.416,248.238 16.977,248.431 12.358,235.555C10.383,230.047 10.296,230.084 8.807,224.418C6.008,213.77 5.837,213.81 4.794,206.45C4.412,203.75 3.445,198.243 3.32,197.53C3.132,196.458 2.078,179.6 2.109,177.496C2.12,176.778 2.803,160.321 3.275,157.463C5.162,146.04 4.606,145.947 7.345,135.458C9.47,127.319 9.326,127.293 12.178,119.384C13.429,115.915 14.464,111.694 22.152,96.333C24.697,91.248 24.993,91.428 30.35,82.409C30.907,81.472 32.462,78.854 38.294,71.347C39.714,69.518 39.456,69.2 47.427,60.434C53.62,53.623 53.653,53.674 60.474,47.472C68.135,40.506 68.352,40.793 78.347,33.285C80.049,32.007 84.428,29.54 88.702,26.833C94.107,23.409 106.095,17.607 111.513,15.533C124.248,10.661 124.265,10.724 137.447,7.309C144.598,5.457 144.763,5.913 153.474,4.351C155.293,4.025 159.381,3.293 176.503,2.59C177.584,2.546 186.638,2.988 187.519,3.031Z" style="fill-opacity:1;"></path>
            <path d="M172.965,310.498C173.192,318.727 170.126,318.628 160.532,317.269C152.933,316.193 152.898,316.473 147.585,315.156C141.962,313.763 141.133,313.299 141.028,307.517C140.79,294.466 140.848,277.316 140.93,276.54C141.588,270.337 145.359,272.711 159.543,274.174C160.017,274.223 160.005,274.282 165.449,274.929C171.585,275.658 172.81,276.534 172.91,281.484C172.994,285.692 172.924,294.316 172.965,310.498Z" style="fill:rgb(251,251,251);"></path>
            <path d="M213.964,279.496C213.999,298.485 213.872,298.476 214.042,305.494C214.054,305.975 214.126,308.981 213.41,311.474C212.617,314.235 210.384,314.211 205.502,315.506C203.629,316.002 187.645,318.817 184.505,317.49C181.64,316.279 182.078,313.193 182.083,301.5C182.094,278.913 182.005,278.817 182.701,277.596C184.226,274.924 185.671,275.687 194.481,274.359C195.521,274.202 195.525,274.355 207.534,272.732C207.674,272.713 210.982,271.828 212.649,273.324C214.237,274.75 213.939,276.778 213.964,279.496Z" style="fill:rgb(251,251,251);"></path>
            <path d="M131.964,282.496C132.015,294.785 132.252,306.861 131.355,308.413C129.567,311.508 124.145,307.975 117.561,305.359C114.3,304.063 103.96,299.208 101.523,296.479C99.531,294.249 99.799,293.886 99.842,270.501C99.856,262.821 99.45,259.452 102.441,259.078C104.809,258.783 109.351,261.908 120.425,265.703C129.175,268.701 130.813,269.214 131.641,272.465C131.978,273.792 131.934,276.276 131.964,282.496Z" style="fill:rgb(251,251,251);"></path>
            <path d="M223.943,272.568C224.585,270.627 224.454,270.565 224.989,269.91C225.63,269.125 225.944,268.741 236.664,264.978C251.806,259.663 252.108,257.853 254.286,259.748C255.405,260.722 255.377,263.186 255.374,263.499C255.113,286.844 255.642,286.851 255.151,292.468C254.814,296.323 253.941,297.399 244.427,302.362C243.137,303.035 234.122,307.094 233.443,307.369C227.67,309.7 224.735,311.306 223.872,307.423C223.276,304.74 223.756,276.299 223.943,272.568Z" style="fill:rgb(249,249,249);"></path>
            <path d="M89.975,254.382C90.329,256.442 90.555,257.762 90.623,280.499C90.635,284.508 90.854,290.461 84.628,285.339C80.322,281.796 69.781,271.976 65.868,267.201C58.604,258.336 59.289,257.604 59.064,256.605C58.396,253.642 58.44,252.647 58.416,235.5C58.406,228.288 62.85,232.487 67.561,236.427C81.96,248.468 88.234,249.741 89.697,253.413C89.821,253.725 89.851,254.07 89.975,254.382Z" style="fill:rgb(252,252,252);"></path>
            <path d="M264.921,255.573C265.509,253.679 265.487,253.684 265.556,253.527C267.318,249.535 275.195,247.023 287.603,236.626C293.551,231.641 293.989,231.577 295.523,232.47C296.763,233.192 296.651,236.17 296.638,236.505C296.003,253.297 297.131,254.427 295.545,258.519C294.66,260.804 291.584,264.839 289.797,266.772C283.019,274.106 281.718,275.301 280.965,275.991C276.322,280.255 271.606,285.01 268.83,286.981C263.831,290.531 264.445,282.909 264.447,282.5C264.59,259.478 264.739,257.72 264.921,255.573Z" style="fill:rgb(252,252,252);"></path>
            <path d="M246.027,184.557C246.155,187.147 246.961,192.382 240.766,196.886C234.788,201.232 223.256,197.277 222.427,187.505C221.505,176.632 237.03,169.683 244.131,179.76C245.196,181.272 245.926,184.157 246.027,184.557Z" style="fill:rgb(252,252,252);"></path>
            <path d="M118.581,174.96C121.046,174.739 123.2,174.445 126.617,176.295C128.571,177.353 128.573,177.372 129.998,179.087C137.026,187.543 130.166,201.216 117.597,198.139C111.557,196.661 106.07,188.039 111.181,180.308C114.276,175.627 118.22,175.076 118.581,174.96Z" style="fill:rgb(251,251,251);"></path>
            <path d="M306.052,223.445C306.353,221.609 306.332,221.617 306.377,221.463C306.754,220.188 307.135,218.901 315.935,207.876C317.807,205.531 319.125,205.693 319.452,205.733C321.886,206.031 320.482,210.088 320.356,210.451C320.077,211.256 317.742,218.408 315.395,224.46C311.274,235.084 309.157,240.527 308.22,241.086C305.182,242.901 305.404,236.927 305.42,236.498C305.811,225.98 305.953,224.485 306.052,223.445Z" style="fill:rgb(245,245,245);"></path>
            <path d="M49.924,237.5C49.866,237.855 49.924,238.222 49.865,238.577C49.842,238.719 49.649,239.89 49.149,240.222C48.949,240.355 48.668,240.262 48.433,240.312C48.303,240.339 47.168,241.074 46.36,239.597C46.168,239.247 40.801,227.431 37.096,216.638C35.509,212.015 33.359,207.398 34.92,205.917C36.494,204.425 39.036,207.395 39.28,207.681C39.471,207.904 44.586,214.379 44.612,214.412C49.775,220.826 49.093,222.132 49.734,233.486C49.847,235.495 49.828,235.48 49.924,237.5Z" style="fill:rgb(241,241,241);"></path>
        </g>
    </g>
</svg>