<?xml version="1.0" encoding="UTF-8" standalone="no"?>
<!DOCTYPE svg PUBLIC "-//W3C//DTD SVG 1.1//EN" "http://www.w3.org/Graphics/SVG/1.1/DTD/svg11.dtd">
<svg width="100%" height="100%" viewBox="0 0 100 100" version="1.1" xmlns="http://www.w3.org/2000/svg" xmlns:xlink="http://www.w3.org/1999/xlink" xml:space="preserve" xmlns:serif="http://www.serif.com/" style="fill-rule:evenodd;clip-rule:evenodd;stroke-linejoin:round;stroke-miterlimit:2;">
    <g transform="matrix(1,0,0,1,-192.022737,-337.604017)">
        <g transform="matrix(0.440619,0,0,0.440619,185.367162,333.997202)">
            <g id="_01" serif:id="01">
                <path d="M239.849,139.542C239.231,144.034 239.048,143.989 238.359,148.477C237.931,151.265 231.186,171.382 225.301,179.353C223.475,181.825 223.302,183.323 220.165,187.237C218.198,189.69 217.596,191.098 215.441,193.447C213.346,195.731 213.593,195.928 210.229,199.222C206.861,202.521 200.772,209.324 188.776,216.93C181.275,221.686 179.04,222.292 172.416,225.309C164.894,228.736 158.618,230.091 152.582,231.866C150.47,232.487 150.457,232.329 142.482,233.366C126.571,235.435 114.736,233.466 107.484,232.619C103.488,232.152 102.451,231.291 95.476,229.614C90.543,228.427 83.416,225.202 82.398,224.741C77.429,222.492 76.771,222.308 72.385,219.689C69.954,218.237 62.686,214.422 53.123,205.951C52.612,205.498 48.917,202.224 46.935,200.076C45.724,198.764 45.735,198.785 44.433,197.577C40.227,193.67 32.112,181.464 31.969,181.209C31.677,180.688 30.633,178.708 30.519,178.49C29.52,176.594 28.621,176.031 25.615,169.441C25.01,168.114 23.234,165.523 19.86,154.39C18.131,148.684 13.806,136.125 15.485,110.499C15.674,107.617 16.863,98.076 18.401,93.469C19.855,89.115 21.963,80.641 25.223,74.359C25.348,74.118 27.551,68.705 29.68,65.625C30.977,63.749 32.059,60.853 34.609,57.585C37.253,54.195 36.925,53.966 39.739,50.7C41.721,48.4 45.748,42.674 55.128,35.069C55.676,34.625 56.309,33.567 64.172,28.014C69.222,24.448 74.47,21.786 75.403,21.313C78.518,19.734 81.014,18.023 87.576,15.757C89.448,15.111 93.194,13.538 97.457,12.357C102.842,10.865 102.928,11.299 108.381,10.033C110.576,9.523 118.836,7.606 136.506,8.359C142.951,8.634 142.851,9.346 155.501,11.497C156.673,11.696 170.022,15.643 176.696,19.12C177.185,19.375 182.729,21.733 190.334,26.756C192.764,28.361 199.219,33.228 200.129,33.958C203.305,36.507 211.002,43.931 216.031,49.937C218.148,52.464 218.112,52.466 219.952,55.193C220.26,55.649 221.531,56.868 223.598,60.447C224.625,62.224 230.472,70.425 235.21,84.587C237.199,90.534 238.049,93.009 238.584,96.485C238.718,97.356 240.058,103.25 241.121,114.532C242.144,125.394 240.152,137.077 239.849,139.542Z" style="fill:rgb(254,238,0);fill-opacity:0.99;"/>
                <path d="M122.492,186.634C126.966,186.841 127.852,186.968 128.5,186.952C131.526,186.879 131.498,186.708 134.504,186.556C134.664,186.631 136.498,187.486 136.498,187.486C136.975,187.315 137.008,186.501 137.484,186.33C140.103,185.994 142.128,185.792 142.533,185.751C145.599,185.445 147.152,184.945 148.563,184.823C152.103,184.516 152.025,184.185 155.479,183.405C166.99,180.806 171.034,178.323 174.648,176.883C180.54,174.536 180.322,174.123 183.509,172.516C184.627,171.952 184.57,171.842 184.678,171.826C184.863,171.799 185.046,172.093 185.209,172.003C185.398,171.898 185.285,171.546 185.444,171.401C185.656,171.209 185.99,171.218 186.235,171.071C186.389,170.979 186.474,170.796 186.624,170.697C187.574,170.073 187.67,170.267 188.563,169.585C191.924,167.016 193.138,166.651 195.547,164.558C195.849,164.296 198.284,162.181 199.441,161.428C199.829,161.176 199.873,161.231 204.213,157.151C204.289,157.079 208.797,152.649 209.195,152.258C214.427,147.117 218.043,138.038 218.621,137.646C218.723,137.576 219.667,136.935 220.172,137.672C220.45,138.078 219.999,139.403 219.95,139.546C218.369,144.184 215.585,149.16 214.858,150.658C212.958,154.569 213.341,154.712 213.083,155.305C213.022,155.443 212.83,155.491 212.765,155.627C212.634,155.902 212.61,156.217 212.511,156.505C212.412,156.794 212.33,157.096 212.173,157.359C212.097,157.485 211.904,157.512 211.833,157.642C211.391,158.442 211.636,158.537 211.151,159.319C210.486,160.392 210.533,160.396 210.465,160.48C210.342,160.634 210.034,160.582 209.942,160.757C209.865,160.906 210.104,161.08 210.067,161.243C210.029,161.412 209.829,161.498 209.74,161.646C209.593,161.893 209.535,162.191 209.363,162.42C209.253,162.565 209.015,162.583 208.919,162.738C208.451,163.491 208.71,163.602 208.194,164.339C202.268,172.802 202.89,173.27 195.887,180.86C189.642,187.629 186.704,190.158 185.843,190.9C178.281,197.409 176.369,197.834 174.32,199.208C168.332,203.221 166.548,203.641 161.671,205.891C154.989,208.974 154.713,208.294 151.483,209.437C150.028,209.952 141.813,212.859 132.493,212.807C122.367,212.751 122.372,212.82 121.494,212.767C120.363,212.698 113.447,212.278 107.537,210.373C101.164,208.319 101.13,208.456 100.582,208.263C83.359,202.196 73.363,193.162 72.465,192.544C70.143,190.948 61.067,181.821 58.783,179.247C54.2,174.082 46.796,162.329 45.243,159.628C45.166,159.493 44.986,159.416 44.953,159.264C44.916,159.09 45.13,158.9 45.054,158.739C44.975,158.572 44.684,158.609 44.573,158.46C44.397,158.225 44.374,157.905 44.235,157.646C44.159,157.505 43.972,157.427 43.933,157.272C43.891,157.103 44.079,156.918 44.014,156.756C43.95,156.598 43.69,156.598 43.601,156.452C43.338,156.024 42.65,153.706 42.579,153.464C41.655,150.35 35.513,139.573 36.427,138.462C37.473,137.189 38.627,139.13 38.727,139.298C41.95,144.719 42.017,147.356 48.404,153.593C49.8,154.955 49.732,155.016 49.859,155.128C50.045,155.293 50.31,155.342 50.518,155.48C50.983,155.79 53.355,158.155 53.595,158.395C54.883,159.679 59.592,163.801 60.552,164.437C61.632,165.152 62.62,166.305 64.535,167.45C66.442,168.589 66.272,168.817 68.177,169.989C70.802,171.603 73.166,172.727 73.325,172.822C75.727,174.25 76.374,174.413 77.273,174.921C81.785,177.47 81.999,176.977 86.693,179.209C87.144,179.423 88.505,180.071 92.584,181.254C101.765,183.918 104.043,184.493 109.548,185.235C111.413,185.486 111.228,186.008 111.563,186.058C111.89,186.107 112.146,185.679 112.477,185.672C112.855,185.665 113.187,185.946 113.559,186.017C113.884,186.079 114.219,186.048 114.549,186.068C116.551,186.186 116.529,186.191 118.513,186.342C120.503,186.494 120.479,186.487 122.492,186.634Z" style="fill:rgb(46,40,38);"/>
                <path d="M118.476,188.775C123.727,189.228 126.257,188.821 126.61,190.457C126.676,190.761 126.77,207.569 126.743,208.524C126.657,211.573 124.491,210.956 123.458,210.742C120.47,210.124 107.644,208.433 106.689,207.339C106.029,206.584 106.394,206.463 106.433,204.503C106.466,202.827 105.983,188.612 106.797,187.884C107.363,187.378 110.165,187.778 110.455,187.819C114.455,188.39 114.44,188.369 118.476,188.775Z" style="fill:rgb(254,254,254);"/>
                <path d="M150.127,206.341C149.827,206.668 149.83,207.204 149.53,207.531C149.409,207.662 149.477,208.046 137.561,209.892C131.928,210.765 131.97,211.033 131.476,211.001C131.305,210.99 130.012,210.351 129.965,210.267C129.577,209.565 129.594,191.657 129.764,190.603C130.068,188.723 131.658,189.43 138.529,188.726C148.704,187.682 148.783,186.984 149.501,187.498C150.367,188.117 149.679,196.68 150.127,206.341Z" style="fill:rgb(254,254,254);"/>
                <path d="M85.526,181.578C85.834,181.662 86.165,181.639 86.472,181.724C87.528,182.015 87.479,182.097 88.52,182.448C90.133,182.992 91.097,183.689 92.578,184.049C97.547,185.254 97.539,185.216 102.437,186.684C104.646,187.347 103.955,188.398 103.913,191.508C103.778,201.649 104.107,204.65 104.073,205.079C104.042,205.463 103.538,206.2 103.441,206.22C101.62,206.605 87.135,200.043 85.001,197.924C84.36,197.288 84.402,196.574 84.388,196.544C85.256,192.302 84.757,192.27 84.918,184.526C84.925,184.219 84.942,183.912 84.934,183.606C84.889,181.924 85.409,181.979 85.526,181.578Z" style="fill:rgb(254,254,254);"/>
                <path d="M152.64,206.076C152.618,204.671 152.411,191.305 152.527,188.51C152.624,186.186 156.001,186.234 158.463,185.394C160.988,184.533 160.99,184.604 163.59,183.94C167.428,182.96 170.264,180.676 171.25,181.903C171.418,182.111 171.431,186.132 171.432,186.5C171.464,196.666 171.835,196.691 171.554,197.528C171.015,199.136 159.486,204.173 156.43,205.303C153.277,206.47 152.754,206.066 152.64,206.076Z" style="fill:rgb(253,253,254);"/>
                <path d="M174.493,196.059C174.399,195.675 173.969,195.431 173.875,195.047C173.844,194.92 173.93,184.768 173.805,182.531C173.679,180.281 173.733,179.871 176.583,178.767C186.557,174.9 188.666,170.134 188.701,174.46C188.704,174.863 188.581,174.855 188.583,179.499C188.586,183.124 189.79,183.655 187.176,186.162C183.496,189.691 179.162,192.869 178.429,193.407C176.499,194.822 176.595,194.943 174.493,196.059Z" style="fill:rgb(253,253,254);"/>
                <path d="M82.665,181.437C82.572,182.317 82.294,184.932 82.405,192.504C82.45,195.565 82.789,195.584 82.641,195.804C82.413,196.143 81.652,195.613 81.424,195.952C79.156,194.637 79.28,194.478 77.228,192.851C67.937,185.485 67.195,184.777 67.475,181.501C67.639,179.572 67.597,174.532 67.597,174.527C67.602,174.4 67.651,173.277 68.456,173.196C68.94,173.147 70.475,174.149 70.638,174.255C73.447,176.091 81.305,179.568 81.925,180.092C82.682,180.731 82.62,181.354 82.665,181.437Z" style="fill:rgb(254,254,254);"/>
                <path d="M45.503,154.219C45.865,154.479 46.14,154.848 46.502,155.109C46.623,155.196 46.626,155.169 48.189,155.913C49.279,157.768 49.538,157.546 50.886,159.202C54.122,163.173 55.049,163.003 56.169,163.937C57.793,165.292 57.681,165.402 59.331,166.721C61.13,168.158 64.475,170.273 64.882,171.318C65.297,172.384 65,174.206 65.077,177.508C65.131,179.764 65.213,179.775 65.059,180.229C64.926,180.621 64.921,181.262 64.516,181.346C63.919,181.469 62.676,179.634 62.553,179.453C61.812,178.359 60.255,176.915 56.804,172.275C54.165,168.727 53.792,167.88 53.605,167.457C52.733,165.476 52.849,165.373 51.259,163.922C49.448,162.27 49.035,161.297 48.43,160.55C47.559,159.474 47.575,159.477 46.801,158.331C46.634,158.084 46.57,157.768 46.37,157.547C46.249,157.414 45.986,157.464 45.883,157.318C45.794,157.193 45.624,156.538 45.606,156.469C45.287,155.243 45.505,154.253 45.503,154.219Z" style="fill:rgb(250,249,248);"/>
                <path d="M203.056,163.544C203.073,163.857 203.238,164.151 203.255,164.464C203.435,167.823 199.121,172.95 198.594,173.577C193.96,179.083 193.896,179.019 193.522,179.52C191.189,182.643 190.603,182.01 190.462,181.742C190.233,181.31 190.776,180.81 190.847,180.326C190.979,179.416 190.807,179.421 190.864,178.513C190.889,178.11 191.1,174.772 191.025,173.468C190.918,171.609 190.493,171.027 194.509,168.512C197.005,166.948 201.698,162.2 202.495,162.592C202.825,162.755 202.726,163.381 203.056,163.544Z" style="fill:rgb(253,253,253);"/>
                <path d="M82.665,181.437C83.003,181.513 82.715,181.844 83.049,181.92C83.175,181.948 83.568,182.037 84.657,181.886C84.961,181.844 85.222,181.62 85.526,181.578C85.409,181.979 84.889,181.924 84.934,183.606C84.942,183.912 84.925,184.219 84.918,184.526C84.757,192.27 85.256,192.302 84.388,196.544C83.4,196.347 82.412,196.149 81.424,195.952C81.652,195.613 82.413,196.143 82.641,195.804C82.789,195.584 82.45,195.565 82.405,192.504C82.294,184.932 82.572,182.317 82.665,181.437Z" style="fill:rgb(101,94,89);"/>
                <path d="M166.501,123.943C166.144,123.857 165.762,123.914 165.405,123.829C161.597,122.92 163.746,117.072 167.607,118.204C169.429,118.738 170.84,123.042 167.593,123.828C167.237,123.914 166.856,123.857 166.501,123.943Z" style="fill:rgb(14,11,10);"/>
                <path d="M89.511,124.032C89.148,123.908 88.748,123.924 88.385,123.8C88.173,123.727 86.839,123.271 86.789,121.492C86.677,117.577 91.584,116.303 92.409,120.52C93.114,124.122 89.809,123.957 89.511,124.032Z" style="fill:rgb(18,15,10);"/>
                <path d="M204.499,163.526C204.48,163.113 204.839,162.74 204.82,162.327C204.803,161.96 203.176,161.023 206.693,157.765C208.611,155.988 210.682,153.514 211.486,153.68C212.791,153.949 211.777,155.442 211.691,155.567C211.419,155.967 210.956,156.203 210.648,156.577C210.465,156.798 210.409,157.105 210.234,157.332C210.126,157.473 209.926,157.522 209.815,157.659C209.465,158.09 207.97,160.422 207.814,160.666C207.183,161.651 207.391,161.77 206.605,162.643C205.914,163.411 205.777,163.178 204.499,163.526Z" style="fill:rgb(235,238,240);"/>
                <path d="M134.504,186.556C135.498,186.481 136.491,186.406 137.484,186.33C137.008,186.501 136.975,187.315 136.498,187.486C136.498,187.486 134.664,186.631 134.504,186.556Z" style="fill:rgb(146,128,10);"/>
                <path d="M45.503,154.219C46.046,154.293 45.893,154.638 46.429,154.711C47.494,154.856 47.434,154.442 47.506,154.492C47.94,154.788 47.755,155.616 48.189,155.913C46.626,155.169 46.623,155.196 46.502,155.109C46.14,154.848 45.865,154.479 45.503,154.219Z" style="fill:rgb(78,84,109);"/>
            </g>
        </g>
    </g>
</svg>
